<?xml version="1.0" encoding="iso-8859-1"?>
<!-- Uploaded to: SVG Repo, www.svgrepo.com, Generator: SVG Repo Mixer Tools -->
<svg version="1.1" id="Layer_1" xmlns="http://www.w3.org/2000/svg" xmlns:xlink="http://www.w3.org/1999/xlink" 
	 viewBox="0 0 503.467 503.467" xml:space="preserve">
<g transform="translate(5 1)">
	<path style="fill:#F2EDDA;" d="M460.067,122.733v341.333c0,18.773-15.36,34.133-34.133,34.133h-358.4
		c-18.773,0-34.133-15.36-34.133-34.133V37.4c0-18.773,15.36-34.133,34.133-34.133H340.6V88.6c0,18.773,15.36,34.133,34.133,34.133
		H460.067z"/>
	<rect x="152.867" y="208.067" style="fill:#AAB1BA;" width="187.733" height="204.8"/>
	<path style="fill:#FFD0A1;" d="M460.067,122.733h-85.333c-18.773,0-34.133-15.36-34.133-34.133V3.267L460.067,122.733z"/>
</g>
<path style="fill:#51565F;" d="M430.933,503.467h-358.4c-21.333,0-38.4-17.067-38.4-38.4V38.4C34.133,17.067,51.2,0,72.533,0H345.6
	c0.853,0,2.56,0.853,3.413,0.853l85.333,85.333c1.707,1.707,1.707,4.267,0,5.973c-1.707,1.707-4.267,1.707-5.973,0l-84.48-84.48
	H72.533c-16.213,0-29.867,13.653-29.867,29.867v426.667c0,16.213,13.653,29.867,29.867,29.867h358.4
	c16.213,0,29.867-13.653,29.867-29.867V127.147h-81.067c-21.333,0-38.4-17.067-38.4-38.4V46.08c0-2.56,1.707-4.267,4.267-4.267
	s4.267,1.707,4.267,4.267v42.667c0,16.213,13.653,29.867,29.867,29.867h85.333c2.56,0,4.267,1.707,4.267,4.267v341.333
	C469.333,486.4,452.267,503.467,430.933,503.467z M345.6,418.133h-51.2c-2.56,0-4.267-1.707-4.267-4.267v-98.133h-76.8V409.6h46.933
	c2.56,0,4.267,1.707,4.267,4.267c0,2.56-1.707,4.267-4.267,4.267h-102.4c-2.56,0-4.267-1.707-4.267-4.267v-204.8
	c0-2.56,1.707-4.267,4.267-4.267H345.6c2.56,0,4.267,1.707,4.267,4.267v204.8C349.867,416.427,348.16,418.133,345.6,418.133z
	 M298.667,409.6h42.667v-42.667h-42.667V409.6z M162.133,409.6H204.8v-42.667h-42.667V409.6z M298.667,358.4h42.667v-42.667h-42.667
	V358.4z M162.133,358.4H204.8v-42.667h-42.667V358.4z M298.667,307.2h42.667v-42.667h-42.667V307.2z M213.333,307.2h76.8v-93.867
	h-76.8V307.2z M162.133,307.2H204.8v-42.667h-42.667V307.2z M298.667,256h42.667v-42.667h-42.667V256z M162.133,256H204.8v-42.667
	h-42.667V256z"/>
</svg>